<?xml version="1.0" encoding="UTF-8" standalone="no"?>
<!DOCTYPE svg PUBLIC "-//W3C//DTD SVG 20010904//EN"
              "http://www.w3.org/TR/2001/REC-SVG-20010904/DTD/svg10.dtd">

<svg xmlns="http://www.w3.org/2000/svg"
     viewBox="0 0 156 149">
  <path id="Unbenannt"
        fill="none" stroke="black" stroke-width="5"
        d="M 9.13,55.13
           C 9.13,55.13 31.88,55.13 31.88,55.13
             31.88,55.13 32.00,2.00 32.00,2.00
             32.00,2.00 124.13,2.13 124.13,2.13
             124.13,2.13 124.00,55.25 124.00,55.25
             124.00,55.25 146.75,55.25 146.75,55.25
             146.75,55.25 146.75,69.88 146.75,69.88
             146.75,69.88 9.00,70.00 9.00,70.00
             9.00,70.00 9.13,55.13 9.13,55.13 Z
           M 47.00,17.13
           C 47.00,17.13 109.13,17.00 109.13,17.00
             109.13,17.00 109.00,25.00 109.13,25.00
             109.25,25.00 47.00,25.13 47.00,25.13
             47.00,25.13 47.00,17.13 47.00,17.13 Z
           M 46.82,31.73
           C 46.82,31.73 94.09,31.73 94.09,31.73
             94.09,31.73 94.18,39.91 94.18,39.91
             94.18,39.91 46.82,40.00 46.82,40.00
             46.82,40.00 46.82,31.73 46.82,31.73 Z
           M 16.25,79.13
           C 16.25,79.13 46.63,79.00 46.63,79.00
             46.63,85.00 51.88,94.13 57.50,94.13
             57.63,94.13 97.63,94.38 97.63,94.38
             103.31,94.38 109.00,86.09 109.00,79.13
             109.00,79.13 139.50,79.13 139.50,79.13
             139.50,79.13 153.50,114.50 153.50,114.50
             153.50,114.50 153.75,136.50 153.75,136.50
             153.73,140.45 148.36,146.27 143.50,146.25
             143.50,146.25 12.00,146.00 12.00,146.00
             7.48,145.91 2.26,140.04 2.25,136.75
             2.25,136.75 2.50,115.50 2.50,115.50
             2.50,115.50 16.25,79.13 16.25,79.13 Z" />
  <path id=""
        fill="none" stroke="black" stroke-width="5"
        d="M 123.25,116.25
           C 127.10,116.25 132.25,119.44 132.07,124.30
             132.00,128.25 128.57,132.36 124.13,132.38
             120.32,132.36 116.06,128.94 116.07,123.93
             116.06,119.69 120.35,116.25 123.25,116.25 Z
           M 92.50,116.63
           C 96.35,116.63 101.50,119.81 101.32,124.67
             101.25,128.63 97.82,132.73 93.38,132.75
             89.57,132.73 85.31,129.31 85.32,124.31
             85.31,120.06 89.60,116.63 92.50,116.63 Z
           M 62.38,116.63
           C 66.23,116.63 71.38,119.81 71.19,124.67
             71.13,128.63 67.70,132.73 63.25,132.75
             59.45,132.73 55.19,129.31 55.19,124.31
             55.19,120.06 59.48,116.63 62.38,116.63 Z
           M 31.00,116.50
           C 34.85,116.50 40.00,119.69 39.82,124.55
             39.75,128.50 36.32,132.61 31.88,132.63
             28.07,132.61 23.81,129.19 23.82,124.18
             23.81,119.94 28.10,116.50 31.00,116.50 Z" />
</svg>
